<svg width="528.7249999999999px" height="124.64000549316405px" xmlns="http://www.w3.org/2000/svg" viewBox="-14.362499999999955 12.679997253417973 528.7249999999999 124.64000549316405" style="background: none;" preserveAspectRatio="xMidYMid"><defs><filter id="editing-crystal" x="-100%" y="-100%" width="300%" height="300%"><feMorphology operator="dilate" radius="2" in="SourceGraphic" result="border"></feMorphology><feFlood flood-color="#fff" result="black"></feFlood><feMorphology operator="dilate" radius="2" in="SourceGraphic" result="erode"></feMorphology><feGaussianBlur in="erode" stdDeviation="4" result="blur"></feGaussianBlur><feOffset in="blur" dx="2" dy="2" result="offset"></feOffset><feComposite operator="atop" in="offset" in2="black" result="merge"></feComposite><feComposite operator="in" in="merge" in2="SourceGraphic" result="inner-shadow"></feComposite><feGaussianBlur in="SourceGraphic" stdDeviation="2.5" result="shadow1"></feGaussianBlur><feOffset in="shadow1" dx="0" dy="5" result="shadow"></feOffset><feSpecularLighting in="SourceGraphic" result="specular" surfaceScale="1.5" specularConstant="100" specularExponent="10" lighting-color="#ffffff"><fePointLight x="250" y="-300" z="-400"></fePointLight></feSpecularLighting><feGaussianBlur in="specular" stdDeviation="1" result="specular2"></feGaussianBlur><feComposite operator="in" in="specular2" in2="SourceAlpha" result="specular3"></feComposite><feMerge result="merge"><feMergeNode in="border"></feMergeNode><feMergeNode in="inner-shadow"></feMergeNode><feMergeNode in="specular3"></feMergeNode></feMerge><feComponentTransfer in="merge" result="final"><feFuncA type="linear" slope="0.9" intercept="0"></feFuncA></feComponentTransfer><feMerge><feMergeNode in="shadow"></feMergeNode><feMergeNode in="final"></feMergeNode></feMerge></filter></defs><g filter="url(#editing-crystal)"><g transform="translate(61.68001890182495, 98.45499992370605)"><path d="M4.48 0L4.48-43.33L4.48-43.33Q4.93-43.33 6.53-43.36L6.53-43.36L6.53-43.36Q8.13-43.39 10.11-43.39L10.11-43.39L10.11-43.39Q12.10-43.39 14.08-43.42L14.08-43.42L14.08-43.42Q16.06-43.46 17.34-43.46L17.34-43.46L17.34-43.46Q25.15-43.46 28.86-39.97L28.86-39.97L28.86-39.97Q32.58-36.48 32.58-30.40L32.58-30.40L32.58-30.40Q32.58-27.46 31.55-24.99L31.55-24.99L31.55-24.99Q30.53-22.53 28.51-20.74L28.51-20.74L28.51-20.74Q26.50-18.94 23.52-17.95L23.52-17.95L23.52-17.95Q20.54-16.96 16.58-16.96L16.58-16.96L12.10-16.96L12.10 0L4.48 0ZM12.10-37.95L12.10-22.66L17.02-22.66L17.02-22.66Q21.06-22.66 22.78-24.77L22.78-24.77L22.78-24.77Q24.51-26.88 24.51-30.14L24.51-30.14L24.51-30.14Q24.51-31.62 24.13-33.02L24.13-33.02L24.13-33.02Q23.74-34.43 22.82-35.55L22.82-35.55L22.82-35.55Q21.89-36.67 20.32-37.34L20.32-37.34L20.32-37.34Q18.75-38.02 16.38-38.02L16.38-38.02L16.38-38.02Q14.98-38.02 13.92-38.02L13.92-38.02L13.92-38.02Q12.86-38.02 12.10-37.95L12.10-37.95ZM45.12 0.26L45.12 0.26Q41.73 0.26 39.94-1.76L39.94-1.76L39.94-1.76Q38.14-3.78 38.14-6.98L38.14-6.98L38.14-31.87L45.44-31.87L45.44-7.62L45.44-7.62Q45.44-6.14 45.89-5.63L45.89-5.63L45.89-5.63Q46.34-5.12 47.23-5.12L47.23-5.12L47.23-5.12Q47.49-5.12 47.78-5.12L47.78-5.12L47.78-5.12Q48.06-5.12 48.32-5.18L48.32-5.18L48.32-5.18Q48.58-5.18 48.90-5.25L48.90-5.25L49.66-0.64L49.66-0.64Q49.22-0.38 48.51-0.19L48.51-0.19L48.51-0.19Q47.94 0 47.07 0.13L47.07 0.13L47.07 0.13Q46.21 0.26 45.12 0.26L45.12 0.26ZM41.92-46.08L41.92-46.08Q43.97-46.08 45.06-44.86L45.06-44.86L45.06-44.86Q46.14-43.65 46.14-41.73L46.14-41.73L46.14-41.73Q46.14-39.81 45.02-38.53L45.02-38.53L45.02-38.53Q43.90-37.25 41.73-37.25L41.73-37.25L41.73-37.25Q39.68-37.25 38.56-38.50L38.56-38.50L38.56-38.50Q37.44-39.74 37.44-41.54L37.44-41.54L37.44-41.54Q37.44-43.52 38.56-44.80L38.56-44.80L38.56-44.80Q39.68-46.08 41.92-46.08L41.92-46.08ZM81.86 0L74.62 0L74.62-20.67L74.62-20.67Q74.62-23.36 73.66-24.99L73.66-24.99L73.66-24.99Q72.70-26.62 70.40-26.62L70.40-26.62L70.40-26.62Q68.93-26.62 67.55-25.89L67.55-25.89L67.55-25.89Q66.18-25.15 65.09-23.74L65.09-23.74L65.09-23.74Q64-22.34 63.33-20.32L63.33-20.32L63.33-20.32Q62.66-18.30 62.66-15.81L62.66-15.81L62.66 0L55.36 0L55.36-16.13L55.36-16.13Q55.36-19.97 54.85-22.56L54.85-22.56L54.85-22.56Q54.34-25.15 53.76-26.75L53.76-26.75L53.76-26.75Q53.06-28.61 52.22-29.76L52.22-29.76L57.98-32.06L57.98-32.06Q58.62-31.36 59.26-30.34L59.26-30.34L59.26-30.34Q59.78-29.44 60.29-28.13L60.29-28.13L60.29-28.13Q60.80-26.82 61.12-25.15L61.12-25.15L61.12-25.15Q62.78-28.99 65.92-30.69L65.92-30.69L65.92-30.69Q69.06-32.38 72.51-32.38L72.51-32.38L72.51-32.38Q77.44-32.38 79.65-29.41L79.65-29.41L79.65-29.41Q81.86-26.43 81.86-21.38L81.86-21.38L81.86 0ZM88-15.17L88-15.17Q88-19.46 89.18-22.72L89.18-22.72L89.18-22.72Q90.37-25.98 92.45-28.19L92.45-28.19L92.45-28.19Q94.53-30.40 97.34-31.52L97.34-31.52L97.34-31.52Q100.16-32.64 103.42-32.64L103.42-32.64L103.42-32.64Q106.30-32.64 108.32-31.94L108.32-31.94L108.32-31.94Q110.34-31.23 111.62-30.02L111.62-30.02L111.62-30.02Q112.90-28.80 113.50-27.14L113.50-27.14L113.50-27.14Q114.11-25.47 114.11-23.55L114.11-23.55L114.11-23.55Q114.11-21.25 112.83-19.17L112.83-19.17L112.83-19.17Q111.55-17.09 109.15-15.52L109.15-15.52L109.15-15.52Q106.75-13.95 103.36-13.02L103.36-13.02L103.36-13.02Q99.97-12.10 95.74-12.03L95.74-12.03L95.74-12.03Q95.94-10.56 96.35-9.25L96.35-9.25L96.35-9.25Q96.77-7.94 97.57-6.94L97.57-6.94L97.57-6.94Q98.37-5.95 99.65-5.38L99.65-5.38L99.65-5.38Q100.93-4.80 102.85-4.80L102.85-4.80L102.85-4.80Q104.26-4.80 105.86-5.12L105.86-5.12L105.86-5.12Q107.46-5.44 108.80-5.89L108.80-5.89L108.80-5.89Q110.40-6.40 111.94-7.04L111.94-7.04L113.86-2.50L113.86-2.50Q112.19-1.66 110.27-1.02L110.27-1.02L110.27-1.02Q108.61-0.45 106.43 0L106.43 0L106.43 0Q104.26 0.45 101.82 0.45L101.82 0.45L101.82 0.45Q98.11 0.45 95.49-0.67L95.49-0.67L95.49-0.67Q92.86-1.79 91.20-3.84L91.20-3.84L91.20-3.84Q89.54-5.89 88.77-8.77L88.77-8.77L88.77-8.77Q88-11.65 88-15.17L88-15.17ZM102.85-27.65L102.85-27.65Q100.74-27.65 99.36-26.66L99.36-26.66L99.36-26.66Q97.98-25.66 97.15-24.10L97.15-24.10L97.15-24.10Q96.32-22.53 95.97-20.58L95.97-20.58L95.97-20.58Q95.62-18.62 95.55-16.64L95.55-16.64L95.55-16.64Q98.62-16.77 100.77-17.44L100.77-17.44L100.77-17.44Q102.91-18.11 104.26-19.10L104.26-19.10L104.26-19.10Q105.60-20.10 106.21-21.25L106.21-21.25L106.21-21.25Q106.82-22.40 106.82-23.55L106.82-23.55L106.82-23.55Q106.82-25.41 105.73-26.53L105.73-26.53L105.73-26.53Q104.64-27.65 102.85-27.65L102.85-27.65ZM162.24-30.53L162.24-15.42L162.24-15.42Q162.24-11.58 162.72-8.99L162.72-8.99L162.72-8.99Q163.20-6.40 163.78-4.80L163.78-4.80L163.78-4.80Q164.48-2.88 165.31-1.79L165.31-1.79L159.62 0.51L159.62 0.51Q158.78-0.32 158.08-1.47L158.08-1.47L158.08-1.47Q157.50-2.50 156.99-3.94L156.99-3.94L156.99-3.94Q156.48-5.38 156.35-7.36L156.35-7.36L156.35-7.36Q155.26-3.52 152.86-1.57L152.86-1.57L152.86-1.57Q150.46 0.38 146.37 0.38L146.37 0.38L146.37 0.38Q143.36 0.38 141.15-0.74L141.15-0.74L141.15-0.74Q138.94-1.86 137.47-3.94L137.47-3.94L137.47-3.94Q136-6.02 135.30-8.96L135.30-8.96L135.30-8.96Q134.59-11.90 134.59-15.49L134.59-15.49L134.59-15.49Q134.59-19.14 135.71-22.24L135.71-22.24L135.71-22.24Q136.83-25.34 138.85-27.58L138.85-27.58L138.85-27.58Q140.86-29.82 143.68-31.10L143.68-31.10L143.68-31.10Q146.50-32.38 149.89-32.38L149.89-32.38L149.89-32.38Q151.81-32.38 153.89-32.10L153.89-32.10L153.89-32.10Q155.97-31.81 157.76-31.49L157.76-31.49L157.76-31.49Q159.55-31.17 160.80-30.88L160.80-30.88L160.80-30.88Q162.05-30.59 162.24-30.53L162.24-30.53ZM147.58-4.74L147.58-4.74Q149.18-4.74 150.53-5.82L150.53-5.82L150.53-5.82Q151.87-6.91 152.86-8.67L152.86-8.67L152.86-8.67Q153.86-10.43 154.40-12.70L154.40-12.70L154.40-12.70Q154.94-14.98 154.94-17.34L154.94-17.34L154.94-26.56L154.94-26.56Q154.30-26.75 153.02-27.01L153.02-27.01L153.02-27.01Q151.74-27.26 150.72-27.26L150.72-27.26L150.72-27.26Q148.29-27.26 146.72-26.43L146.72-26.43L146.72-26.43Q145.15-25.60 144.19-24.13L144.19-24.13L144.19-24.13Q143.23-22.66 142.85-20.61L142.85-20.61L142.85-20.61Q142.46-18.56 142.46-16.13L142.46-16.13L142.46-16.13Q142.46-13.89 142.59-11.84L142.59-11.84L142.59-11.84Q142.72-9.79 143.26-8.19L143.26-8.19L143.26-8.19Q143.81-6.59 144.83-5.66L144.83-5.66L144.83-5.66Q145.86-4.74 147.58-4.74L147.58-4.74ZM196.61 0L189.38 0L189.38-20.67L189.38-20.67Q189.38-23.36 188.42-24.99L188.42-24.99L188.42-24.99Q187.46-26.62 185.15-26.62L185.15-26.62L185.15-26.62Q183.68-26.62 182.30-25.89L182.30-25.89L182.30-25.89Q180.93-25.15 179.84-23.74L179.84-23.74L179.84-23.74Q178.75-22.34 178.08-20.32L178.08-20.32L178.08-20.32Q177.41-18.30 177.41-15.81L177.41-15.81L177.41 0L170.11 0L170.11-16.13L170.11-16.13Q170.11-19.97 169.60-22.56L169.60-22.56L169.60-22.56Q169.09-25.15 168.51-26.75L168.51-26.75L168.51-26.75Q167.81-28.61 166.98-29.76L166.98-29.76L172.74-32.06L172.74-32.06Q173.38-31.36 174.02-30.34L174.02-30.34L174.02-30.34Q174.53-29.44 175.04-28.13L175.04-28.13L175.04-28.13Q175.55-26.82 175.87-25.15L175.87-25.15L175.87-25.15Q177.54-28.99 180.67-30.69L180.67-30.69L180.67-30.69Q183.81-32.38 187.26-32.38L187.26-32.38L187.26-32.38Q192.19-32.38 194.40-29.41L194.40-29.41L194.40-29.41Q196.61-26.43 196.61-21.38L196.61-21.38L196.61 0ZM233.47-1.79L227.78 0.51L227.78 0.51Q227.65 0.45 227.20-0.10L227.20-0.10L227.20-0.10Q226.75-0.64 226.21-1.60L226.21-1.60L226.21-1.60Q225.66-2.56 225.15-4L225.15-4L225.15-4Q224.64-5.44 224.51-7.36L224.51-7.36L224.51-7.36Q223.42-3.52 221.02-1.57L221.02-1.57L221.02-1.57Q218.62 0.38 214.53 0.38L214.53 0.38L214.53 0.38Q211.52 0.38 209.31-0.74L209.31-0.74L209.31-0.74Q207.10-1.86 205.63-3.94L205.63-3.94L205.63-3.94Q204.16-6.02 203.46-8.96L203.46-8.96L203.46-8.96Q202.75-11.90 202.75-15.49L202.75-15.49L202.75-15.49Q202.75-19.14 203.87-22.24L203.87-22.24L203.87-22.24Q204.99-25.34 207.01-27.58L207.01-27.58L207.01-27.58Q209.02-29.82 211.84-31.10L211.84-31.10L211.84-31.10Q214.66-32.38 218.05-32.38L218.05-32.38L218.05-32.38Q219.20-32.38 220.51-32.26L220.51-32.26L220.51-32.26Q221.82-32.13 223.10-31.94L223.10-31.94L223.10-46.40L230.40-45.12L230.40-15.42L230.40-15.42Q230.40-11.58 230.85-9.06L230.85-9.06L230.85-9.06Q231.30-6.53 231.87-4.96L231.87-4.96L231.87-4.96Q232.45-3.39 232.93-2.69L232.93-2.69L232.93-2.69Q233.41-1.98 233.47-1.79L233.47-1.79ZM215.74-4.80L215.74-4.80Q217.34-4.80 218.69-5.89L218.69-5.89L218.69-5.89Q220.03-6.98 221.02-8.74L221.02-8.74L221.02-8.74Q222.02-10.50 222.56-12.74L222.56-12.74L222.56-12.74Q223.10-14.98 223.10-17.34L223.10-17.34L223.10-26.56L223.10-26.56Q222.46-26.75 221.18-27.01L221.18-27.01L221.18-27.01Q219.90-27.26 218.88-27.26L218.88-27.26L218.88-27.26Q216.45-27.26 214.88-26.43L214.88-26.43L214.88-26.43Q213.31-25.60 212.35-24.13L212.35-24.13L212.35-24.13Q211.39-22.66 211.01-20.61L211.01-20.61L211.01-20.61Q210.62-18.56 210.62-16.13L210.62-16.13L210.62-16.13Q210.62-13.89 210.75-11.84L210.75-11.84L210.75-11.84Q210.88-9.79 211.42-8.22L211.42-8.22L211.42-8.22Q211.97-6.66 212.99-5.73L212.99-5.73L212.99-5.73Q214.02-4.80 215.74-4.80L215.74-4.80ZM255.62 0L255.62-43.33L255.62-43.33Q256.06-43.33 257.54-43.36L257.54-43.36L257.54-43.36Q259.01-43.39 260.86-43.39L260.86-43.39L260.86-43.39Q262.72-43.39 264.70-43.42L264.70-43.42L264.70-43.42Q266.69-43.46 268.16-43.46L268.16-43.46L268.16-43.46Q279.04-43.46 284.29-38.05L284.29-38.05L284.29-38.05Q289.54-32.64 289.54-21.95L289.54-21.95L289.54-21.95Q289.54-11.26 284.16-5.57L284.16-5.57L284.16-5.57Q278.78 0.13 267.33 0.13L267.33 0.13L267.33 0.13Q265.34 0.13 263.46 0.10L263.46 0.10L263.46 0.10Q261.57 0.06 260 0.06L260 0.06L260 0.06Q258.43 0.06 257.28 0.03L257.28 0.03L257.28 0.03Q256.13 0 255.62 0L255.62 0ZM267.26-37.76L267.26-37.76Q265.79-37.76 264.80-37.73L264.80-37.73L264.80-37.73Q263.81-37.70 263.23-37.70L263.23-37.70L263.23-5.63L263.23-5.63Q263.94-5.57 265.06-5.57L265.06-5.57L265.06-5.57Q266.18-5.57 268.29-5.57L268.29-5.57L268.29-5.57Q275.01-5.57 278.14-9.50L278.14-9.50L278.14-9.50Q281.28-13.44 281.28-21.25L281.28-21.25L281.28-21.25Q281.28-24.96 280.54-28L280.54-28L280.54-28Q279.81-31.04 278.11-33.22L278.11-33.22L278.11-33.22Q276.42-35.39 273.76-36.58L273.76-36.58L273.76-36.58Q271.10-37.76 267.26-37.76L267.26-37.76ZM303.17 0.26L303.17 0.26Q299.78 0.26 297.98-1.76L297.98-1.76L297.98-1.76Q296.19-3.78 296.19-6.98L296.19-6.98L296.19-31.87L303.49-31.87L303.49-7.62L303.49-7.62Q303.49-6.14 303.94-5.63L303.94-5.63L303.94-5.63Q304.38-5.12 305.28-5.12L305.28-5.12L305.28-5.12Q305.54-5.12 305.82-5.12L305.82-5.12L305.82-5.12Q306.11-5.12 306.37-5.18L306.37-5.18L306.37-5.18Q306.62-5.18 306.94-5.25L306.94-5.25L307.71-0.64L307.71-0.64Q307.26-0.38 306.56-0.19L306.56-0.19L306.56-0.19Q305.98 0 305.12 0.13L305.12 0.13L305.12 0.13Q304.26 0.26 303.17 0.26L303.17 0.26ZM299.97-46.08L299.97-46.08Q302.02-46.08 303.10-44.86L303.10-44.86L303.10-44.86Q304.19-43.65 304.19-41.73L304.19-41.73L304.19-41.73Q304.19-39.81 303.07-38.53L303.07-38.53L303.07-38.53Q301.95-37.25 299.78-37.25L299.78-37.25L299.78-37.25Q297.73-37.25 296.61-38.50L296.61-38.50L296.61-38.50Q295.49-39.74 295.49-41.54L295.49-41.54L295.49-41.54Q295.49-43.52 296.61-44.80L296.61-44.80L296.61-44.80Q297.73-46.08 299.97-46.08L299.97-46.08ZM339.90 0L332.67 0L332.67-20.67L332.67-20.67Q332.67-23.36 331.71-24.99L331.71-24.99L331.71-24.99Q330.75-26.62 328.45-26.62L328.45-26.62L328.45-26.62Q326.98-26.62 325.60-25.89L325.60-25.89L325.60-25.89Q324.22-25.15 323.14-23.74L323.14-23.74L323.14-23.74Q322.05-22.34 321.38-20.32L321.38-20.32L321.38-20.32Q320.70-18.30 320.70-15.81L320.70-15.81L320.70 0L313.41 0L313.41-16.13L313.41-16.13Q313.41-19.97 312.90-22.56L312.90-22.56L312.90-22.56Q312.38-25.15 311.81-26.75L311.81-26.75L311.81-26.75Q311.10-28.61 310.27-29.76L310.27-29.76L316.03-32.06L316.03-32.06Q316.67-31.36 317.31-30.34L317.31-30.34L317.31-30.34Q317.82-29.44 318.34-28.13L318.34-28.13L318.34-28.13Q318.85-26.82 319.17-25.15L319.17-25.15L319.17-25.15Q320.83-28.99 323.97-30.69L323.97-30.69L323.97-30.69Q327.10-32.38 330.56-32.38L330.56-32.38L330.56-32.38Q335.49-32.38 337.70-29.41L337.70-29.41L337.70-29.41Q339.90-26.43 339.90-21.38L339.90-21.38L339.90 0ZM346.05-15.17L346.05-15.17Q346.05-19.46 347.23-22.72L347.23-22.72L347.23-22.72Q348.42-25.98 350.50-28.19L350.50-28.19L350.50-28.19Q352.58-30.40 355.39-31.52L355.39-31.52L355.39-31.52Q358.21-32.64 361.47-32.64L361.47-32.64L361.47-32.64Q364.35-32.64 366.37-31.94L366.37-31.94L366.37-31.94Q368.38-31.23 369.66-30.02L369.66-30.02L369.66-30.02Q370.94-28.80 371.55-27.14L371.55-27.14L371.55-27.14Q372.16-25.47 372.16-23.55L372.16-23.55L372.16-23.55Q372.16-21.25 370.88-19.17L370.88-19.17L370.88-19.17Q369.60-17.09 367.20-15.52L367.20-15.52L367.20-15.52Q364.80-13.95 361.41-13.02L361.41-13.02L361.41-13.02Q358.02-12.10 353.79-12.03L353.79-12.03L353.79-12.03Q353.98-10.56 354.40-9.25L354.40-9.25L354.40-9.25Q354.82-7.94 355.62-6.94L355.62-6.94L355.62-6.94Q356.42-5.95 357.70-5.38L357.70-5.38L357.70-5.38Q358.98-4.80 360.90-4.80L360.90-4.80L360.90-4.80Q362.30-4.80 363.90-5.12L363.90-5.12L363.90-5.12Q365.50-5.44 366.85-5.89L366.85-5.89L366.85-5.89Q368.45-6.40 369.98-7.04L369.98-7.04L371.90-2.50L371.90-2.50Q370.24-1.66 368.32-1.02L368.32-1.02L368.32-1.02Q366.66-0.45 364.48 0L364.48 0L364.48 0Q362.30 0.45 359.87 0.45L359.87 0.45L359.87 0.45Q356.16 0.45 353.54-0.67L353.54-0.67L353.54-0.67Q350.91-1.79 349.25-3.84L349.25-3.84L349.25-3.84Q347.58-5.89 346.82-8.77L346.82-8.77L346.82-8.77Q346.05-11.65 346.05-15.17L346.05-15.17ZM360.90-27.65L360.90-27.65Q358.78-27.65 357.41-26.66L357.41-26.66L357.41-26.66Q356.03-25.66 355.20-24.10L355.20-24.10L355.20-24.10Q354.37-22.53 354.02-20.58L354.02-20.58L354.02-20.58Q353.66-18.62 353.60-16.64L353.60-16.64L353.60-16.64Q356.67-16.77 358.82-17.44L358.82-17.44L358.82-17.44Q360.96-18.11 362.30-19.10L362.30-19.10L362.30-19.10Q363.65-20.10 364.26-21.25L364.26-21.25L364.26-21.25Q364.86-22.40 364.86-23.55L364.86-23.55L364.86-23.55Q364.86-25.41 363.78-26.53L363.78-26.53L363.78-26.53Q362.69-27.65 360.90-27.65L360.90-27.65Z" fill="#000000" stroke="#88e0eb" stroke-width="1.5"></path></g></g><style>text {
  font-size: 64px;
  font-family: Arial Black;
  dominant-baseline: central;
  text-anchor: middle;
}</style></svg>